<svg width="174" height="208" viewBox="0 0 174 208" fill="none" xmlns="http://www.w3.org/2000/svg">
<g clip-path="url(#clip0_16_23)">
<path d="M100.091 0.138226C103.701 -0.173671 107.098 0.0847536 110.672 0.491122C152.32 5.22712 178.341 43.1112 173.401 83.728C170.813 103.682 160.377 121.781 144.404 134.013C127.745 147.013 110.226 151.209 89.5354 148.639C89.4103 144.204 89.0745 139.54 88.8231 135.093C106.023 137.387 120.673 134.751 134.707 124.152C148.219 114.006 157.076 98.8457 159.28 82.0916C161.604 65.6142 157.28 48.8885 147.262 35.603C138.79 24.4914 124.626 16.108 110.758 14.2293C95.7592 12.2251 80.5781 16.2616 68.5542 25.4515C55.9389 35.2272 47.6487 49.5518 45.4567 65.3616C43.1566 82.8586 49.0123 99.3816 59.6 113.179C55.4545 115.239 51.2584 117.272 47.2326 119.553C44.3978 115.843 41.8332 111.934 39.5588 107.856C28.04 130.724 17.5325 135.27 12.5647 162.042C15.2957 156.329 18.1523 150.414 22.0779 145.38C37.5054 125.595 63.6657 116.568 85.9031 107.084C99.9308 101.101 120.979 91.4262 126.968 76.375C129.223 70.6598 129.083 64.278 126.58 58.6673C121.839 47.8793 110.452 45.2524 100.204 49.8631C82.412 59.9717 79.9836 86.328 80.235 104.512C76.2331 106.417 71.0497 108.204 66.8187 109.778C65.6726 86.5507 66.9626 65.2852 82.5267 46.7399C102.326 21.9463 141.632 34.7274 142.484 66.5286C143.479 103.611 95.9243 116.757 69.1522 129.068C51.4545 137.205 29.9176 148.36 25.3817 168.93C20.053 193.099 47.3811 202.072 61.7394 184.432C74.1256 169.448 70.6391 151.118 69.404 133.475C73.6842 131.739 78.0427 129.899 82.4219 128.459C83.1692 133.593 83.796 138.743 84.3018 143.906C85.8608 161.404 84.3993 179.136 72.6326 193.261C65.2781 202.09 55.6656 206.832 44.2397 207.86C33.6236 208.816 23.4078 204.797 15.3252 197.992C6.49536 190.558 1.00554 177.828 0.14244 166.374C-1.17106 148.944 6.78506 133.833 16.3607 119.913C21.5137 112.423 26.5301 105.756 29.4604 97.0277C32.1076 89.1445 30.932 83.0724 30.8045 75.1059C30.4046 56.6968 36.8552 38.7953 48.9049 24.8741C62.4912 9.13149 79.637 1.62105 100.091 0.138226Z" fill="#3A9097"/>
</g>
<defs>
<clipPath id="clip0_16_23">
<rect width="174" height="208" fill="white"/>
</clipPath>
</defs>
</svg>
