<svg width="750" height="208" viewBox="0 0 750 208" fill="none" xmlns="http://www.w3.org/2000/svg">
<g clip-path="url(#clip0_16_23)">
<path d="M100.091 0.138226C103.701 -0.173671 107.098 0.0847536 110.672 0.491122C152.32 5.22712 178.341 43.1112 173.401 83.728C170.813 103.682 160.377 121.781 144.404 134.013C127.745 147.013 110.226 151.209 89.5354 148.639C89.4103 144.204 89.0745 139.54 88.8231 135.093C106.023 137.387 120.673 134.751 134.707 124.152C148.219 114.006 157.076 98.8457 159.28 82.0916C161.604 65.6142 157.28 48.8885 147.262 35.603C138.79 24.4914 124.626 16.108 110.758 14.2293C95.7592 12.2251 80.5781 16.2616 68.5542 25.4515C55.9389 35.2272 47.6487 49.5518 45.4567 65.3616C43.1566 82.8586 49.0123 99.3816 59.6 113.179C55.4545 115.239 51.2584 117.272 47.2326 119.553C44.3978 115.843 41.8332 111.934 39.5588 107.856C28.04 130.724 17.5325 135.27 12.5647 162.042C15.2957 156.329 18.1523 150.414 22.0779 145.38C37.5054 125.595 63.6657 116.568 85.9031 107.084C99.9308 101.101 120.979 91.4262 126.968 76.375C129.223 70.6598 129.083 64.278 126.58 58.6673C121.839 47.8793 110.452 45.2524 100.204 49.8631C82.412 59.9717 79.9836 86.328 80.235 104.512C76.2331 106.417 71.0497 108.204 66.8187 109.778C65.6726 86.5507 66.9626 65.2852 82.5267 46.7399C102.326 21.9463 141.632 34.7274 142.484 66.5286C143.479 103.611 95.9243 116.757 69.1522 129.068C51.4545 137.205 29.9176 148.36 25.3817 168.93C20.053 193.099 47.3811 202.072 61.7394 184.432C74.1256 169.448 70.6391 151.118 69.404 133.475C73.6842 131.739 78.0427 129.899 82.4219 128.459C83.1692 133.593 83.796 138.743 84.3018 143.906C85.8608 161.404 84.3993 179.136 72.6326 193.261C65.2781 202.09 55.6656 206.832 44.2397 207.86C33.6236 208.816 23.4078 204.797 15.3252 197.992C6.49536 190.558 1.00554 177.828 0.14244 166.374C-1.17106 148.944 6.78506 133.833 16.3607 119.913C21.5137 112.423 26.5301 105.756 29.4604 97.0277C32.1076 89.1445 30.932 83.0724 30.8045 75.1059C30.4046 56.6968 36.8552 38.7953 48.9049 24.8741C62.4912 9.13149 79.637 1.62105 100.091 0.138226Z" fill="#3A9097"/>
<path d="M680.372 110.241C680.372 103.465 681.703 97.4553 684.365 92.212C687.107 86.9686 690.778 82.9353 695.376 80.112C700.054 77.2886 705.257 75.877 710.985 75.877C715.986 75.877 720.342 76.8853 724.053 78.9019C727.844 80.9186 730.869 83.4596 733.128 86.5249V76.966H750.189V144H733.128V134.199C730.95 137.345 727.925 139.967 724.053 142.064C720.261 144.081 715.865 145.089 710.864 145.089C705.217 145.089 700.054 143.637 695.376 140.733C690.778 137.829 687.107 133.755 684.365 128.512C681.703 123.188 680.372 117.098 680.372 110.241ZM733.128 110.483C733.128 106.369 732.321 102.86 730.708 99.9559C729.094 96.9713 726.916 94.7126 724.174 93.18C721.431 91.5666 718.487 90.7599 715.341 90.7599C712.195 90.7599 709.291 91.5263 706.629 93.059C703.967 94.5916 701.789 96.8503 700.095 99.835C698.481 102.739 697.675 106.208 697.675 110.241C697.675 114.274 698.481 117.824 700.095 120.889C701.789 123.874 703.967 126.173 706.629 127.786C709.371 129.399 712.275 130.206 715.341 130.206C718.487 130.206 721.431 129.44 724.174 127.907C726.916 126.294 729.094 124.035 730.708 121.131C732.321 118.146 733.128 114.597 733.128 110.483Z" fill="#204B67"/>
<path d="M645.508 75.998C653.494 75.998 659.947 78.5391 664.868 83.6211C669.788 88.6224 672.249 95.6404 672.249 104.675V144H655.309V106.974C655.309 101.65 653.978 97.5764 651.316 94.7531C648.654 91.8491 645.024 90.397 640.426 90.397C635.747 90.397 632.036 91.8491 629.294 94.7531C626.632 97.5764 625.301 101.65 625.301 106.974V144H608.361V76.966H625.301V85.315C627.559 82.411 630.423 80.1524 633.892 78.5391C637.441 76.8451 641.313 75.998 645.508 75.998Z" fill="#204B67"/>
<path d="M586.905 68.98C583.92 68.98 581.42 68.0523 579.403 66.197C577.467 64.261 576.499 61.8813 576.499 59.058C576.499 56.2347 577.467 53.8953 579.403 52.04C581.42 50.104 583.92 49.136 586.905 49.136C589.89 49.136 592.35 50.104 594.286 52.04C596.303 53.8953 597.311 56.2347 597.311 59.058C597.311 61.8813 596.303 64.261 594.286 66.197C592.35 68.0523 589.89 68.98 586.905 68.98ZM595.254 76.966V144H578.314V76.966H595.254Z" fill="#204B67"/>
<path d="M554.756 90.881V123.309C554.756 125.568 555.28 127.221 556.329 128.27C557.458 129.238 559.313 129.722 561.895 129.722H569.76V144H559.112C544.834 144 537.695 137.063 537.695 123.188V90.881H529.709V76.966H537.695V60.389H554.756V76.966H569.76V90.881H554.756Z" fill="#204B67"/>
<path d="M492.478 145.089C486.024 145.089 480.216 143.677 475.054 140.854C469.891 137.95 465.817 133.876 462.833 128.633C459.929 123.39 458.477 117.34 458.477 110.483C458.477 103.626 459.969 97.5763 462.954 92.333C466.019 87.0896 470.173 83.0563 475.417 80.233C480.66 77.329 486.508 75.877 492.962 75.877C499.415 75.877 505.263 77.329 510.507 80.233C515.75 83.0563 519.864 87.0896 522.849 92.333C525.914 97.5763 527.447 103.626 527.447 110.483C527.447 117.34 525.874 123.39 522.728 128.633C519.662 133.876 515.468 137.95 510.144 140.854C504.9 143.677 499.012 145.089 492.478 145.089ZM492.478 130.327C495.543 130.327 498.407 129.601 501.069 128.149C503.811 126.616 505.989 124.358 507.603 121.373C509.216 118.388 510.023 114.758 510.023 110.483C510.023 104.11 508.329 99.23 504.941 95.8419C501.633 92.3733 497.56 90.639 492.72 90.639C487.88 90.639 483.806 92.3733 480.499 95.8419C477.272 99.23 475.659 104.11 475.659 110.483C475.659 116.856 477.232 121.776 480.378 125.245C483.604 128.633 487.638 130.327 492.478 130.327Z" fill="#204B67"/>
<path d="M433.596 144L414.962 111.088H406.976V144H390.036V59.542H421.738C428.272 59.542 433.838 60.7117 438.436 63.051C443.034 65.3097 446.462 68.4153 448.721 72.368C451.06 76.24 452.23 80.596 452.23 85.436C452.23 91.002 450.617 96.0437 447.39 100.561C444.163 104.998 439.364 108.063 432.991 109.757L453.198 144H433.596ZM406.976 98.383H421.133C425.731 98.383 429.159 97.294 431.418 95.116C433.677 92.8573 434.806 89.7517 434.806 85.799C434.806 81.927 433.677 78.9423 431.418 76.845C429.159 74.667 425.731 73.578 421.133 73.578H406.976V98.383Z" fill="#204B67"/>
<path d="M367.688 90.881V123.309C367.688 125.568 368.212 127.221 369.261 128.27C370.39 129.238 372.246 129.722 374.827 129.722H382.692V144H372.044C357.766 144 350.627 137.063 350.627 123.188V90.881H342.641V76.966H350.627V60.389H367.688V76.966H382.692V90.881H367.688Z" fill="#3A9097"/>
<path d="M340.44 109.031C340.44 111.451 340.279 113.629 339.956 115.565H290.951C291.355 120.405 293.049 124.196 296.033 126.939C299.018 129.682 302.688 131.053 307.044 131.053C313.336 131.053 317.813 128.351 320.475 122.946H338.746C336.81 129.399 333.1 134.723 327.614 138.918C322.129 143.032 315.393 145.089 307.407 145.089C300.954 145.089 295.146 143.677 289.983 140.854C284.901 137.95 280.908 133.876 278.004 128.633C275.181 123.39 273.769 117.34 273.769 110.483C273.769 103.546 275.181 97.4553 278.004 92.212C280.828 86.9686 284.78 82.9353 289.862 80.112C294.944 77.2886 300.793 75.877 307.407 75.877C313.78 75.877 319.467 77.2483 324.468 79.991C329.55 82.7336 333.463 86.6459 336.205 91.728C339.029 96.7293 340.44 102.497 340.44 109.031ZM322.895 104.191C322.815 99.8349 321.242 96.3663 318.176 93.785C315.111 91.123 311.36 89.792 306.923 89.792C302.729 89.792 299.179 91.0826 296.275 93.664C293.452 96.1646 291.718 99.6736 291.072 104.191H322.895Z" fill="#3A9097"/>
<path d="M270.938 85.678C270.938 90.1953 269.849 94.4303 267.671 98.383C265.574 102.336 262.226 105.522 257.628 107.942C253.111 110.362 247.383 111.572 240.446 111.572H226.289V144H209.349V59.542H240.446C246.98 59.542 252.546 60.6713 257.144 62.93C261.742 65.1887 265.17 68.2943 267.429 72.247C269.768 76.1997 270.938 80.6767 270.938 85.678ZM239.72 97.899C244.399 97.899 247.867 96.8503 250.126 94.753C252.385 92.575 253.514 89.55 253.514 85.678C253.514 77.45 248.916 73.336 239.72 73.336H226.289V97.899H239.72Z" fill="#3A9097"/>
</g>
<defs>
<clipPath id="clip0_16_23">
<rect width="750" height="208" fill="white"/>
</clipPath>
</defs>
</svg>
